<svg width="128" height="128" viewBox="0 0 648 648" xmlns="http://www.w3.org/2000/svg">
<g transform="translate(0,648) scale(0.1,-0.1)" fill="#32D011" stroke="none">
<path d="M3030 6474 c-19 -2 -84 -9 -145 -15 -309 -31 -654 -122 -945 -251
-921 -406 -1597 -1207 -1844 -2183 -65 -260 -91 -479 -91 -785 0 -306 26 -526
91 -785 295 -1165 1195 -2064 2359 -2359 260 -65 479 -91 785 -91 377 0 655
42 995 152 1136 366 1990 1344 2194 2513 37 211 46 322 46 570 0 248 -9 359
-46 570 -205 1175 -1066 2156 -2209 2518 -192 61 -368 100 -581 128 -108 14
-534 27 -609 18z m585 -377 c684 -101 1258 -389 1715 -864 155 -161 229 -253
355 -448 346 -532 505 -1192 440 -1820 -38 -363 -118 -646 -276 -975 -70 -143
-103 -201 -207 -357 -84 -128 -135 -179 -187 -189 -82 -15 -165 58 -165 145 0
40 5 50 111 201 287 410 449 933 449 1450 0 815 -382 1578 -1035 2066 -82 61
-173 124 -180 124 -2 0 -23 13 -47 29 -142 95 -447 224 -673 284 -258 69 -360
81 -675 81 -247 0 -301 -3 -405 -22 -227 -40 -334 -69 -529 -139 -82 -30 -335
-151 -411 -196 -108 -64 -218 -143 -355 -252 -67 -54 -304 -301 -368 -384
-145 -188 -253 -369 -336 -564 -96 -226 -155 -437 -192 -682 -26 -169 -23
-528 4 -710 69 -450 234 -839 516 -1213 51 -69 55 -130 13 -185 -37 -49 -103
-73 -152 -57 -20 6 -46 22 -59 33 -71 67 -259 361 -345 541 -262 545 -346
1138 -245 1736 84 495 317 990 648 1375 120 140 314 323 451 427 70 52 242
168 250 168 3 0 24 12 48 27 59 37 256 134 357 176 232 95 526 171 770 197 58
7 112 13 120 15 38 9 505 -5 595 -18z m-354 -748 c39 -13 82 -50 109 -94 11
-17 67 -141 126 -275 59 -135 131 -300 160 -367 29 -67 63 -144 75 -170 12
-27 61 -138 109 -248 48 -110 136 -310 195 -445 59 -135 139 -317 177 -405 38
-88 80 -182 93 -210 13 -27 62 -138 108 -245 47 -107 128 -294 182 -415 53
-121 132 -301 175 -400 42 -99 91 -209 107 -245 17 -36 56 -126 88 -200 32
-74 74 -171 95 -215 96 -207 106 -258 68 -335 -54 -106 -169 -121 -247 -31
-11 12 -277 624 -592 1359 -314 735 -582 1361 -595 1390 -13 29 -24 55 -24 57
0 2 -11 29 -25 60 -25 53 -88 200 -197 460 -88 209 -149 349 -159 368 -5 9
-19 43 -30 75 -12 31 -24 60 -28 64 -4 4 -38 -65 -75 -155 -38 -89 -80 -186
-92 -215 -13 -29 -24 -56 -24 -59 0 -4 -8 -25 -19 -47 -18 -40 -48 -112 -276
-656 -59 -140 -113 -268 -120 -285 -8 -16 -51 -118 -95 -225 -45 -107 -90
-214 -101 -237 -10 -24 -19 -46 -19 -50 0 -4 -8 -25 -19 -47 -10 -23 -67 -156
-126 -296 -59 -140 -150 -356 -202 -480 -52 -124 -109 -261 -128 -305 -157
-378 -323 -752 -343 -776 -48 -58 -113 -74 -178 -43 -79 38 -96 133 -43 244
27 57 341 787 447 1040 102 243 354 840 452 1070 60 140 117 278 128 305 17
44 174 418 204 485 6 14 14 34 19 45 4 11 52 126 107 255 54 129 145 345 202
480 56 135 113 268 126 295 27 58 75 108 119 123 40 14 46 14 86 1z m1282
-4415 c57 -29 76 -62 77 -129 0 -95 -24 -115 -244 -209 -367 -157 -730 -230
-1151 -230 -276 -1 -509 31 -785 107 -168 46 -481 172 -530 213 -93 79 -47
238 73 251 36 4 58 -1 109 -25 34 -16 88 -39 118 -52 30 -12 64 -26 75 -31
133 -58 367 -119 600 -155 152 -25 522 -24 690 0 302 44 549 117 805 239 84
40 116 44 163 21z"/>
</g>
</svg>
